<svg xmlns="http://www.w3.org/2000/svg" viewBox="0 0 19 19"><defs><style>.cls-1{fill:none;stroke:#919eab;stroke-miterlimit:10;}.cls-2{fill:#919eab;}</style></defs><title>Special sales for DARK THEME circle</title><g id="Layer_2" data-name="Layer 2"><g id="Layer_1-2" data-name="Layer 1"><circle class="cls-1" cx="9.5" cy="9.5" r="9"/><path class="cls-2" d="M12,12.05a2.07,2.07,0,0,1-1.51,1.63,2.14,2.14,0,0,1-.44.08,3.38,3.38,0,0,0,0,.45.44.44,0,0,1-.7.39c-.18-.12-.16-.29-.16-.48v-.37l-.42-.07a1.68,1.68,0,0,1-.39-.16A2,2,0,0,1,7.72,13a2.28,2.28,0,0,1-.46-1.59.52.52,0,0,1,.07-.27.47.47,0,0,1,.4-.18.48.48,0,0,1,.41.18.86.86,0,0,1,.07.51c0,1.46,2.27,1.71,2.81.45,0,0,.53-1.09-1.47-2.28,0,0-2.15-1.14-2.29-2.53s.76-2,1.91-2.33V4.37s0-.28.42-.28.43.28.43.28v.57a2,2,0,0,1,1.81,1.62v.86a.41.41,0,0,1-.43.33s-.43,0-.43-.33a4.33,4.33,0,0,0,0-.72,1,1,0,0,0-.45-.63,1.41,1.41,0,0,0-1-.32,1.39,1.39,0,0,0-1.24.86,1.58,1.58,0,0,0,.67,1.66c1,.72,2.47,1.43,2.9,2.48A2.61,2.61,0,0,1,12,12.05Z"/></g></g></svg>